<?xml version="1.0" encoding="UTF-8"?><svg id="Layer_2" xmlns="http://www.w3.org/2000/svg" viewBox="0 0 5898.74 4897.68"><g id="Layer_1-2"><path d="m2993.59,1c192.61,0,385.19,15.67,572.39,46.56,182.81,30.17,362.8,75.23,534.96,133.93,169.35,57.74,332.97,129.3,486.31,212.69,152.11,82.72,295.58,177.87,426.43,282.82,130.98,105.06,250.53,220.91,355.33,344.33,105.85,124.67,197.71,258.31,273.01,397.22,76.69,141.46,137.08,290,179.49,441.49,43.49,155.35,68.64,315.89,74.75,477.15,6.29,165.89-7.57,332.45-41.19,495.03-32.76,158.46-84.68,315.06-154.3,465.48-68.36,147.69-154.47,290.89-255.94,425.65-100.51,133.48-216.96,259.82-346.12,375.53-129.16,115.71-272.09,221.74-424.82,315.13-154.2,94.29-319.74,176.53-492.04,244.44-175.49,69.16-359.79,124.16-547.79,163.46-192.9,40.32-392.1,64.61-592.05,72.19-45.46,1.72-91.49,2.6-136.8,2.6-192.62,0-385.22-15.66-572.43-46.56-182.82-30.17-362.81-75.23-534.98-133.93-169.36-57.74-332.98-129.3-486.32-212.68-152.11-82.72-295.59-177.87-426.43-282.81-130.98-105.05-250.53-220.9-355.33-344.33-105.85-124.67-197.71-258.31-273.01-397.22-76.69-141.46-137.08-290.01-179.48-441.5-43.49-155.36-68.64-315.9-74.75-477.17-6.29-165.89,7.57-332.45,41.19-495.03,32.76-158.46,84.68-315.06,154.3-465.48,68.36-147.69,154.47-290.89,255.94-425.65,100.51-133.48,216.96-259.82,346.11-375.53,129.16-115.71,272.09-221.74,424.82-315.13,154.2-94.29,319.74-176.53,492.04-244.44,175.49-69.16,359.79-124.16,547.79-163.46,192.9-40.32,392.1-64.61,592.05-72.19,45.42-1.72,91.45-2.59,136.8-2.6h.07M2993.52,0c-45.36,0-91.03.86-136.84,2.6C1228.61,64.28-49.7,1209.51,1.49,2560.53c49.75,1313.01,1336.86,2337.15,2903.73,2337.15,45.36,0,91.03-.86,136.84-2.6,1628.07-61.69,2906.39-1206.91,2855.2-2557.94C5847.51,1024.14,4560.39-.03,2993.52,0h0Z"/></g></svg>